<svg id="visual" viewBox="0 0 960 540" width="960" height="540" xmlns="http://www.w3.org/2000/svg" xmlns:xlink="http://www.w3.org/1999/xlink" version="1.1"><rect x="0" y="0" width="960" height="540" fill="#000"></rect><defs><linearGradient id="grad1_0" x1="43.8%" y1="0%" x2="100%" y2="100%"><stop offset="14.444444444444446%" stop-color="#000000" stop-opacity="1"></stop><stop offset="85.55555555555554%" stop-color="#000000" stop-opacity="1"></stop></linearGradient></defs><defs><linearGradient id="grad2_0" x1="0%" y1="0%" x2="56.3%" y2="100%"><stop offset="14.444444444444446%" stop-color="#000000" stop-opacity="1"></stop><stop offset="85.55555555555554%" stop-color="#000000" stop-opacity="1"></stop></linearGradient></defs><g transform="translate(960, 0)"><path d="M0 297C-35 299.9 -69.9 302.8 -91.8 282.5C-113.6 262.1 -122.3 218.6 -142.8 196.6C-163.4 174.6 -195.8 174.2 -220.1 159.9C-244.3 145.6 -260.5 117.3 -272 88.4C-283.5 59.4 -290.2 29.7 -297 0L0 0Z" fill="#a4191b"></path></g><g transform="translate(0, 540)"><path d="M0 -297C24.4 -269.6 48.8 -242.2 75.1 -231.1C101.4 -220 129.5 -225.3 159.9 -220.1C190.3 -214.8 223 -199 240.3 -174.6C257.6 -150.1 259.4 -117.1 266.3 -86.5C273.2 -56 285.1 -28 297 0L0 0Z" fill="#a4191b"></path></g></svg>