<svg id="visual" viewBox="0 0 540 960" width="540" height="960" xmlns="http://www.w3.org/2000/svg" xmlns:xlink="http://www.w3.org/1999/xlink" version="1.1"><rect x="0" y="0" width="540" height="960" fill="#000"></rect><defs><linearGradient id="grad1_0" x1="0%" y1="0%" x2="100%" y2="100%"><stop offset="30%" stop-color="#000000" stop-opacity="1"></stop><stop offset="70%" stop-color="#000000" stop-opacity="1"></stop></linearGradient></defs><defs><linearGradient id="grad2_0" x1="0%" y1="0%" x2="100%" y2="100%"><stop offset="30%" stop-color="#000000" stop-opacity="1"></stop><stop offset="70%" stop-color="#000000" stop-opacity="1"></stop></linearGradient></defs><g transform="translate(540, 0)"><path d="M0 270C-26.4 245.4 -52.8 220.8 -87.6 211.6C-122.4 202.3 -165.6 208.4 -190.9 190.9C-216.2 173.5 -223.5 132.6 -233.7 96.8C-243.9 61.1 -257 30.5 -270 0L0 0Z" fill="#A4191B"></path></g><g transform="translate(0, 960)"><path d="M0 -270C29.8 -250.5 59.6 -231.1 90.3 -218C121 -205 152.5 -198.4 181 -181C209.6 -163.6 235.1 -135.3 249.4 -103.3C263.8 -71.3 266.9 -35.7 270 0L0 0Z" fill="#A4191B"></path></g></svg>