<svg xmlns="http://www.w3.org/2000/svg" xmlns:xlink="http://www.w3.org/1999/xlink" width="48" height="48.839" viewBox="0 0 48 48.839"><defs><filter id="a" x="0" y="0" width="48" height="48.839" filterUnits="userSpaceOnUse"><feOffset dx="5" dy="5" input="SourceAlpha"/><feGaussianBlur stdDeviation="3" result="b"/><feFlood flood-opacity="0.161"/><feComposite operator="in" in2="b"/><feComposite in="SourceGraphic"/></filter></defs><g transform="matrix(1, 0, 0, 1, 0, 0)" filter="url(#a)"><path d="M28.729,18.93a12.019,12.019,0,0,0,.108-1.511,12.017,12.017,0,0,0-.108-1.511l3.253-2.544a.771.771,0,0,0,.185-.987L29.084,7.042a.771.771,0,0,0-.941-.339L24.3,8.245A11.265,11.265,0,0,0,21.7,6.734l-.586-4.086A.752.752,0,0,0,20.356,2H14.189a.752.752,0,0,0-.756.648l-.586,4.086a11.846,11.846,0,0,0-2.606,1.511L6.4,6.7a.752.752,0,0,0-.941.339L2.377,12.377a.76.76,0,0,0,.185.987l3.253,2.544a12.229,12.229,0,0,0-.108,1.511,12.229,12.229,0,0,0,.108,1.511L2.563,21.475a.771.771,0,0,0-.185.987L5.461,27.8a.771.771,0,0,0,.941.339l3.839-1.542A11.265,11.265,0,0,0,12.847,28.1l.586,4.086a.752.752,0,0,0,.756.648h6.168a.752.752,0,0,0,.756-.648L21.7,28.1A11.847,11.847,0,0,0,24.3,26.594l3.839,1.542a.752.752,0,0,0,.941-.339l3.084-5.335a.771.771,0,0,0-.185-.987ZM17.272,22.816a5.4,5.4,0,1,1,5.4-5.4,5.4,5.4,0,0,1-5.4,5.4Z" transform="translate(1.73 2)" fill="#a4191b"/></g></svg>