<svg id="visual" viewBox="0 0 900 600" width="900" height="600" xmlns="http://www.w3.org/2000/svg" xmlns:xlink="http://www.w3.org/1999/xlink" version="1.1"><path d="M0 149L21.5 146.7C43 144.3 86 139.7 128.8 146.2C171.7 152.7 214.3 170.3 257.2 167.2C300 164 343 140 385.8 136.3C428.7 132.7 471.3 149.3 514.2 166.7C557 184 600 202 642.8 196.3C685.7 190.7 728.3 161.3 771.2 145C814 128.7 857 125.3 878.5 123.7L900 122L900 0L878.5 0C857 0 814 0 771.2 0C728.3 0 685.7 0 642.8 0C600 0 557 0 514.2 0C471.3 0 428.7 0 385.8 0C343 0 300 0 257.2 0C214.3 0 171.7 0 128.8 0C86 0 43 0 21.5 0L0 0Z" fill="#a4191b" stroke-linecap="round" stroke-linejoin="miter"></path></svg>