<svg id="visual" viewBox="0 0 540 960" width="540" height="960" xmlns="http://www.w3.org/2000/svg" xmlns:xlink="http://www.w3.org/1999/xlink" version="1.1"><path d="M0 176L18 170C36 164 72 152 108 140C144 128 180 116 216 121.8C252 127.7 288 151.3 324 153.8C360 156.3 396 137.7 432 132.8C468 128 504 137 522 141.5L540 146L540 0L522 0C504 0 468 0 432 0C396 0 360 0 324 0C288 0 252 0 216 0C180 0 144 0 108 0C72 0 36 0 18 0L0 0Z" fill="#A4191B" stroke-linecap="round" stroke-linejoin="miter"></path></svg>