<svg id="visual" viewBox="0 0 540 960" width="540" height="960" xmlns="http://www.w3.org/2000/svg" xmlns:xlink="http://www.w3.org/1999/xlink" version="1.1"><path d="M0 86L18 87.3C36 88.7 72 91.3 108 105.3C144 119.3 180 144.7 216 157.5C252 170.3 288 170.7 324 164.3C360 158 396 145 432 144.5C468 144 504 156 522 162L540 168L540 0L522 0C504 0 468 0 432 0C396 0 360 0 324 0C288 0 252 0 216 0C180 0 144 0 108 0C72 0 36 0 18 0L0 0Z" fill="#A4191B" stroke-linecap="round" stroke-linejoin="miter"></path></svg>