<svg id="visual" viewBox="0 0 540 960" width="540" height="960" xmlns="http://www.w3.org/2000/svg" xmlns:xlink="http://www.w3.org/1999/xlink" version="1.1"><path d="M0 106L18 115C36 124 72 142 108 154.5C144 167 180 174 216 172.5C252 171 288 161 324 148.2C360 135.3 396 119.7 432 115.2C468 110.7 504 117.3 522 120.7L540 124L540 0L522 0C504 0 468 0 432 0C396 0 360 0 324 0C288 0 252 0 216 0C180 0 144 0 108 0C72 0 36 0 18 0L0 0Z" fill="#A4191B" stroke-linecap="round" stroke-linejoin="miter"></path></svg>