<svg id="visual" viewBox="0 0 960 540" width="960" height="540" xmlns="http://www.w3.org/2000/svg" xmlns:xlink="http://www.w3.org/1999/xlink" version="1.1"><path d="M0 64L26.7 65.7C53.3 67.3 106.7 70.7 160 71.2C213.3 71.7 266.7 69.3 320 70.3C373.3 71.3 426.7 75.7 480 82.8C533.3 90 586.7 100 640 98.3C693.3 96.7 746.7 83.3 800 78.7C853.3 74 906.7 78 933.3 80L960 82L960 0L933.3 0C906.7 0 853.3 0 800 0C746.7 0 693.3 0 640 0C586.7 0 533.3 0 480 0C426.7 0 373.3 0 320 0C266.7 0 213.3 0 160 0C106.7 0 53.3 0 26.7 0L0 0Z" fill="#a4191b" stroke-linecap="round" stroke-linejoin="miter"></path></svg>