<?xml version="1.0" standalone="no"?>
<!DOCTYPE svg PUBLIC "-//W3C//DTD SVG 20010904//EN"
 "http://www.w3.org/TR/2001/REC-SVG-20010904/DTD/svg10.dtd">
<svg version="1.0" xmlns="http://www.w3.org/2000/svg"
 width="872.000000pt" height="872.000000pt" viewBox="0 0 872.000000 872.000000"
 preserveAspectRatio="xMidYMid meet">
<metadata>
Created by potrace 1.14, written by Peter Selinger 2001-2017
</metadata>
<g transform="translate(0.000000,872.000000) scale(0.100000,-0.100000)"
fill="#000000" stroke="none">
<path d="M3959 8716 c-2 -2 -42 -7 -89 -10 -118 -8 -235 -21 -235 -26 0 -2
-95 -12 -127 -14 -16 0 -28 -4 -28 -7 0 -3 -6 -6 -12 -6 -17 0 -89 -12 -108
-18 -8 -2 -26 -6 -40 -9 -14 -3 -36 -8 -50 -11 -14 -4 -38 -8 -53 -11 -15 -2
-37 -8 -47 -14 -11 -6 -20 -9 -20 -6 0 2 -44 -9 -97 -25 -54 -17 -106 -32
-116 -34 -37 -9 -288 -101 -322 -119 -11 -5 -25 -11 -31 -12 -28 -5 -352 -163
-360 -175 -3 -5 -10 -7 -15 -4 -5 4 -9 2 -9 -3 0 -5 -8 -12 -17 -15 -34 -11
-247 -140 -338 -205 -84 -60 -268 -199 -300 -227 -16 -14 -52 -45 -79 -68 -27
-23 -81 -72 -120 -109 -39 -37 -74 -68 -78 -68 -5 0 -8 -4 -8 -8 0 -5 -30 -39
-67 -78 -160 -164 -375 -433 -463 -579 -14 -22 -28 -44 -32 -50 -20 -25 -88
-137 -88 -145 0 -5 -6 -15 -12 -22 -7 -7 -25 -35 -39 -63 -14 -27 -45 -85 -68
-127 -23 -43 -38 -78 -35 -78 4 0 -1 -9 -12 -21 -10 -12 -18 -23 -17 -25 2 -2
-8 -28 -21 -56 -94 -206 -217 -564 -241 -697 -3 -17 -9 -40 -14 -53 -5 -13 -9
-26 -9 -31 0 -4 -3 -20 -6 -35 -4 -15 -8 -40 -11 -57 -3 -16 -11 -61 -19 -100
-13 -67 -22 -123 -32 -210 -3 -22 -7 -51 -9 -65 -27 -150 -26 -743 0 -905 3
-16 7 -48 9 -70 8 -67 22 -168 30 -207 3 -16 8 -39 10 -53 3 -14 7 -33 10 -43
3 -9 7 -33 10 -52 4 -19 11 -53 16 -75 10 -36 16 -62 25 -105 2 -8 4 -15 5
-15 1 0 3 -7 5 -15 17 -70 72 -250 94 -305 5 -11 18 -47 31 -80 66 -179 164
-389 262 -562 33 -60 66 -118 72 -130 6 -13 14 -23 19 -23 4 0 7 -7 7 -15 0
-8 5 -15 10 -15 6 0 10 -6 10 -12 1 -12 136 -211 189 -278 58 -73 167 -207
178 -218 7 -7 13 -17 13 -22 0 -4 -191 -199 -425 -433 -408 -408 -423 -425
-394 -429 16 -3 32 -1 35 4 3 5 11 5 17 1 15 -9 158 -10 163 -1 3 4 15 4 27 0
12 -4 384 -7 827 -6 l805 1 160 -82 c170 -87 438 -204 441 -193 0 2 8 -3 17
-11 10 -7 17 -10 17 -6 0 4 6 3 13 -2 23 -19 289 -100 310 -95 4 1 7 -2 7 -8
0 -6 3 -9 8 -8 8 2 107 -20 132 -29 20 -8 28 -10 70 -18 19 -3 67 -12 105 -20
88 -17 130 -25 175 -30 19 -2 49 -6 65 -9 17 -3 55 -8 85 -11 30 -3 70 -8 89
-11 56 -8 248 -16 380 -16 112 0 128 -2 160 -22 44 -28 259 -134 321 -159 25
-10 54 -23 65 -28 58 -26 311 -103 410 -125 24 -6 161 -34 190 -39 101 -19
263 -30 465 -29 162 0 325 7 325 14 0 1 18 4 40 6 42 3 100 12 100 14 0 1 16
3 35 6 19 2 46 7 60 10 14 4 30 8 35 10 6 1 28 5 50 9 22 4 44 10 50 13 5 3
16 7 25 8 38 3 273 80 337 109 17 8 34 15 38 15 4 0 82 37 173 82 l165 81 643
0 c582 0 643 2 631 16 -6 8 -135 138 -284 288 -150 150 -273 276 -273 282 0 8
76 104 123 156 10 11 25 32 33 47 8 16 19 28 24 28 6 0 10 5 10 11 0 6 17 36
38 67 67 99 90 136 103 164 7 16 16 28 21 28 4 0 8 9 8 19 0 11 4 21 8 23 8 3
48 81 110 218 16 36 44 106 61 155 18 50 35 97 38 105 4 8 5 19 4 24 -1 4 3
13 8 20 5 6 12 23 15 36 3 14 12 49 20 79 8 30 13 58 10 63 -3 4 0 8 7 8 7 0
10 3 7 6 -4 3 -2 19 3 36 5 17 11 47 14 67 3 20 8 48 11 61 10 49 18 115 31
240 14 143 8 472 -11 605 -2 17 -7 50 -10 75 -7 57 -19 121 -31 170 -4 14 -8
34 -10 45 -4 28 -40 158 -61 225 -10 30 -18 57 -19 60 -1 3 -5 14 -10 25 -4
11 -22 58 -40 105 -18 47 -56 133 -84 193 -50 105 -51 109 -46 180 6 84 6 430
0 502 -11 144 -16 205 -20 226 -3 13 -7 49 -10 80 -3 31 -8 67 -11 80 -3 13
-7 38 -9 54 -3 17 -8 41 -11 55 -3 14 -7 39 -9 55 -2 17 -4 30 -5 30 -2 0 -4
9 -5 20 -3 24 -53 229 -65 265 -4 14 -13 45 -20 70 -7 25 -16 54 -20 65 -8 20
-33 93 -36 108 -1 4 -3 9 -4 12 -1 3 -3 8 -5 13 -1 4 -5 16 -9 27 -4 11 -13
34 -18 50 -11 31 -26 68 -54 133 -9 20 -22 51 -29 67 -7 17 -23 53 -36 80 -12
28 -23 52 -24 55 -1 7 -48 97 -95 185 -21 39 -46 86 -56 105 -11 19 -25 39
-31 43 -7 4 -13 13 -13 18 0 12 -87 150 -140 224 -90 123 -179 243 -206 274
-184 214 -324 357 -498 506 -57 48 -71 61 -115 98 -12 9 -24 17 -27 17 -4 0
-14 8 -23 18 -32 35 -331 239 -427 292 -21 12 -52 30 -69 40 -72 43 -243 128
-249 123 -3 -4 -6 -1 -6 5 0 6 -10 14 -22 18 -13 4 -50 19 -83 34 -120 55
-155 70 -165 70 -6 0 -19 5 -30 10 -11 6 -29 15 -40 20 -11 6 -28 10 -38 10
-10 0 -22 4 -28 9 -7 8 -234 80 -302 96 -9 3 -53 14 -97 25 -103 26 -132 32
-205 45 -14 3 -50 9 -80 15 -30 5 -73 12 -95 15 -22 2 -50 7 -63 9 -13 3 -53
8 -90 12 -37 3 -85 8 -107 11 -50 5 -581 13 -586 9z m210 -41 c13 7 70 7 211
0 74 -4 161 -8 192 -9 32 0 58 -4 58 -7 0 -3 6 -6 13 -6 11 -1 98 -10 162 -18
17 -2 30 -4 30 -5 0 -1 9 -3 20 -4 17 -3 80 -12 135 -21 8 -1 22 -5 30 -8 8
-3 31 -8 51 -11 20 -3 42 -8 50 -10 8 -3 25 -8 39 -10 14 -3 59 -15 100 -27
126 -35 144 -40 170 -46 14 -3 30 -9 35 -13 9 -7 59 -21 70 -20 3 0 19 -7 35
-15 16 -8 32 -15 35 -15 16 -1 230 -89 330 -136 44 -21 82 -38 85 -39 3 0 10
-3 16 -7 10 -7 109 -60 189 -103 22 -11 59 -33 82 -48 24 -15 47 -27 53 -27 5
0 10 -3 10 -7 0 -5 21 -20 48 -36 78 -46 99 -59 127 -84 7 -7 18 -13 24 -13 6
0 11 -3 11 -8 0 -4 18 -18 40 -32 22 -14 40 -28 40 -32 0 -5 5 -8 11 -8 5 0
24 -13 42 -30 18 -16 35 -30 38 -30 3 0 15 -8 26 -17 11 -10 47 -40 78 -68 32
-27 79 -68 104 -90 53 -46 291 -283 291 -290 0 -2 10 -15 23 -28 41 -43 97
-109 97 -114 0 -3 14 -19 30 -35 17 -15 30 -33 30 -38 0 -6 4 -10 8 -10 5 0
15 -12 23 -27 8 -15 23 -37 34 -49 11 -12 47 -62 80 -110 33 -49 63 -90 68
-92 4 -2 7 -10 7 -18 0 -8 5 -14 10 -14 6 0 10 -4 10 -9 0 -4 30 -57 66 -117
65 -108 209 -391 251 -495 39 -95 52 -129 52 -132 0 -1 9 -27 21 -57 20 -51
97 -286 105 -320 2 -8 16 -64 30 -124 26 -108 31 -127 40 -176 2 -14 9 -50 15
-80 12 -57 14 -70 25 -155 7 -53 9 -72 19 -175 12 -139 17 -219 18 -325 1
-138 -3 -315 -7 -315 -2 0 -29 42 -61 93 -32 50 -62 94 -66 95 -4 2 -8 9 -8
15 0 7 -14 27 -30 46 -17 18 -30 37 -30 40 0 4 -8 16 -18 27 -9 10 -33 39 -52
64 -92 120 -304 332 -435 435 -21 17 -43 35 -50 40 -33 31 -233 165 -245 165
-6 0 -10 5 -10 10 0 6 -5 10 -10 10 -6 0 -28 11 -50 25 -144 91 -474 232 -650
277 -86 22 -116 30 -130 33 -8 2 -37 9 -65 15 -27 6 -63 13 -80 16 -16 2 -41
6 -55 9 -25 5 -72 12 -145 21 -131 15 -367 20 -515 10 -122 -9 -145 -12 -300
-37 -116 -19 -123 -21 -148 -30 -14 -5 -41 -12 -61 -15 -20 -3 -44 -10 -53
-15 -10 -5 -18 -8 -18 -5 0 5 -218 -66 -255 -83 -11 -5 -45 -19 -75 -31 -75
-31 -232 -107 -305 -148 -84 -48 -219 -136 -223 -144 -2 -5 -10 -8 -18 -8 -8
0 -14 -4 -14 -10 0 -5 -7 -10 -15 -10 -8 0 -15 -3 -15 -7 0 -5 -16 -19 -35
-32 -19 -13 -45 -32 -57 -43 -13 -11 -38 -32 -57 -46 -18 -15 -45 -38 -60 -52
-15 -14 -45 -41 -67 -61 -62 -57 -175 -178 -234 -249 -29 -36 -57 -66 -61 -68
-5 -2 -9 -10 -9 -18 0 -8 -4 -14 -8 -14 -4 0 -27 -28 -50 -62 -23 -35 -55 -82
-72 -105 -16 -24 -26 -43 -22 -43 4 0 2 -4 -3 -8 -42 -30 -268 -485 -268 -539
0 -7 -3 -13 -7 -13 -4 0 -7 -6 -8 -12 0 -7 -19 -71 -41 -141 -22 -70 -41 -143
-44 -161 -2 -19 -7 -38 -10 -43 -3 -5 -9 -32 -13 -59 -3 -27 -8 -52 -10 -55
-2 -4 -6 -24 -9 -45 -3 -22 -7 -50 -10 -63 -7 -38 -17 -150 -19 -218 0 -35 -3
-63 -6 -63 -9 0 3 -365 15 -438 3 -20 10 -66 15 -102 16 -111 36 -211 65 -315
9 -33 18 -67 20 -75 27 -129 237 -611 280 -642 6 -4 6 -8 2 -8 -4 0 -3 -6 3
-12 9 -11 117 -172 145 -217 6 -9 12 -18 15 -21 3 -3 30 -36 60 -75 77 -99
101 -126 220 -245 107 -107 171 -165 230 -210 18 -14 38 -30 44 -35 6 -6 34
-26 61 -45 28 -19 52 -38 55 -41 3 -3 24 -18 48 -33 23 -14 42 -29 42 -32 0
-3 -83 -4 -185 -2 -102 1 -185 5 -185 8 0 3 -15 5 -33 6 -57 1 -183 16 -267
31 -19 3 -45 7 -57 9 -13 1 -71 12 -130 24 -136 28 -124 25 -148 33 -11 3 -31
8 -45 11 -93 18 -381 110 -478 153 -18 8 -41 16 -51 18 -10 2 -27 8 -37 13
-26 14 -118 56 -124 56 -12 2 -288 141 -311 157 -14 10 -29 16 -33 12 -3 -3
-6 -1 -6 6 0 9 -9 12 -24 9 -14 -3 -30 -1 -37 3 -7 4 -18 5 -24 1 -15 -10
-115 -8 -115 2 0 5 -6 4 -12 -1 -14 -10 -91 -9 -108 2 -6 3 -10 2 -10 -2 0 -5
-25 -8 -55 -8 -30 0 -55 4 -55 9 0 5 -6 4 -12 -1 -11 -8 -61 -10 -93 -3 -5 1
-12 1 -15 0 -15 -7 -120 -4 -120 4 0 5 -6 4 -12 -1 -14 -10 -91 -9 -108 2 -6
3 -10 2 -10 -2 0 -5 -25 -8 -55 -8 -30 0 -55 4 -55 9 0 5 -6 4 -12 -1 -11 -8
-61 -10 -93 -3 -5 1 -12 1 -15 0 -15 -7 -120 -4 -120 4 0 5 -6 4 -13 -1 -13
-10 -90 -9 -107 2 -6 3 -10 2 -10 -2 0 -5 -25 -8 -55 -8 -30 0 -55 4 -55 9 0
5 -6 4 -13 -1 -10 -8 -60 -10 -92 -3 -5 1 -12 1 -15 0 -15 -7 -90 -5 -90 3 0
4 -5 5 -12 1 -6 -4 -55 -8 -109 -8 -80 -1 -96 1 -89 13 4 7 187 193 406 413
l398 398 -22 23 c-37 38 -65 70 -107 122 -21 28 -42 52 -45 55 -16 13 -190
261 -190 270 0 5 -4 10 -10 10 -5 0 -10 7 -10 15 0 8 -4 15 -10 15 -5 0 -10 4
-10 9 0 5 -18 37 -40 70 -22 33 -40 64 -40 70 0 5 -3 11 -7 13 -17 7 -200 373
-253 505 -63 157 -109 291 -102 297 3 3 0 6 -6 6 -7 0 -12 7 -12 15 0 13 -28
116 -76 281 -8 28 -14 55 -13 60 1 5 0 11 -1 14 -1 3 -3 13 -5 24 -2 10 -9 41
-16 69 -6 28 -13 58 -14 66 -1 14 -11 79 -20 136 -2 11 -4 20 -5 20 -1 0 -3
20 -5 45 -1 25 -5 63 -8 85 -15 97 -35 448 -28 475 1 3 4 64 6 135 5 137 9
195 20 285 4 30 8 71 10 90 1 19 4 35 5 35 1 0 3 18 6 40 2 22 11 75 20 118 8
42 18 90 20 105 3 15 14 67 25 115 12 49 22 94 23 100 2 7 6 19 9 27 3 8 11
35 17 60 7 25 21 72 32 105 11 33 21 65 23 70 1 6 6 21 12 35 6 14 20 52 31
85 28 79 66 174 107 260 18 39 45 97 60 129 40 85 163 306 180 323 8 8 15 19
15 24 0 6 11 25 25 43 14 18 25 38 25 44 0 7 4 12 8 12 5 0 14 11 20 25 17 36
228 317 282 375 14 15 55 60 91 101 108 121 265 274 374 364 26 22 53 45 59
50 6 6 36 29 66 53 30 23 60 46 66 51 6 5 35 26 65 47 30 21 56 42 57 46 2 5
8 8 12 8 5 0 38 20 73 45 36 25 69 45 75 45 6 0 12 4 14 8 8 21 297 177 508
275 164 76 458 180 630 222 95 23 160 38 185 42 17 3 37 9 46 14 9 4 18 6 21
4 2 -3 19 0 38 5 18 5 54 12 79 15 25 3 55 7 67 9 12 2 45 7 75 11 30 3 65 8
79 10 52 8 169 16 284 20 65 3 121 7 125 10 3 4 7 1 9 -4 2 -6 7 -9 11 -6z"/>
</g>
</svg>
